<svg version="1.1" id="Layer_1" xmlns="http://www.w3.org/2000/svg" xmlns:xlink="http://www.w3.org/1999/xlink" x="0px" y="0px"
	 width="100%" viewBox="0 0 528 560" enable-background="new 0 0 528 560" xml:space="preserve">
<path fill="#000000" opacity="1.000000" stroke="none" 
	d="
M235.250000,561.000000 
	C235.480774,555.684143 232.781815,551.840942 229.245010,548.323059 
	C225.171005,544.270874 222.889160,539.429871 223.033661,533.560486 
	C223.069443,532.107727 223.230392,530.564026 221.484970,529.682922 
	C218.395096,528.123047 217.314697,525.198242 216.290573,522.106995 
	C215.611404,520.057007 215.052444,517.691101 211.407166,519.221436 
	C208.247345,520.547974 208.108383,517.746948 208.374557,515.367310 
	C209.152008,508.416870 209.937637,501.466675 210.619598,494.506592 
	C210.789841,492.769257 211.496704,490.735199 209.531372,489.480530 
	C208.266876,488.673279 206.818497,488.034119 205.271866,488.595642 
	C203.557480,489.218018 203.554306,490.796875 203.344543,492.312134 
	C202.093384,501.350525 200.759430,510.377380 199.506607,519.415527 
	C199.280838,521.044250 199.560944,523.337830 197.262802,523.062744 
	C195.039230,522.796692 195.041428,520.618652 195.236206,518.659973 
	C196.142242,509.549072 197.025482,500.435394 197.813370,491.313751 
	C198.032150,488.780884 198.964554,485.658356 194.759216,485.288513 
	C190.681229,484.929871 190.651520,488.223480 190.458572,490.666504 
	C189.398956,504.083099 187.212311,517.343506 185.272186,530.640076 
	C184.961899,532.766541 185.056870,535.635742 182.088699,535.217407 
	C179.338928,534.829834 179.790039,532.191772 180.001297,529.926941 
	C181.279053,516.227722 182.569229,502.527222 183.576004,488.806641 
	C183.887177,484.565704 183.847321,480.137787 179.602737,477.213837 
	C177.226639,475.577026 175.290970,475.356781 172.952103,477.409454 
	C167.571152,482.132080 162.047699,486.696167 156.500992,491.225281 
	C147.410110,498.648438 138.525391,506.364136 129.050537,513.265625 
	C119.579712,520.164185 108.406418,519.745667 97.357414,518.597473 
	C94.911888,518.343445 93.116119,516.758240 93.713554,514.179138 
	C95.254684,507.526123 93.661865,500.017548 99.635109,494.496735 
	C101.555534,492.721771 102.200294,489.541473 103.350365,486.969055 
	C103.902573,485.733917 103.509102,484.531403 102.327171,483.974823 
	C98.703941,482.268677 98.768677,479.262115 99.023590,475.927551 
	C99.554314,468.984955 95.786415,463.959381 88.857750,462.039001 
	C87.286201,461.603455 86.416420,460.348755 85.498100,459.200348 
	C77.386009,449.056091 71.485939,437.789886 68.176582,425.182983 
	C67.046730,420.878845 68.174400,417.239807 71.048767,414.109497 
	C79.042419,405.404205 86.096619,395.861481 94.762909,387.750458 
	C98.567429,384.189697 94.584969,381.023895 93.719711,377.802124 
	C92.924393,374.840729 90.352837,375.030182 87.942825,375.616241 
	C66.926041,380.727173 45.898384,385.794647 24.907024,391.008148 
	C18.130365,392.691254 11.448967,394.510864 4.180957,391.191498 
	C7.051535,386.290314 11.257303,383.699799 16.264334,382.124329 
	C37.552448,375.425934 58.861420,368.792175 80.102509,361.947815 
	C83.264854,360.928864 87.931885,361.165314 87.836166,355.798523 
	C87.655350,345.661194 86.079514,342.600677 79.926514,340.634369 
	C74.798103,338.995453 70.204926,336.980652 69.953865,330.463989 
	C69.862389,328.089813 67.564384,327.446747 65.782967,326.606293 
	C58.071239,322.967957 50.768387,318.655243 44.023441,313.432495 
	C41.806133,311.715607 39.454700,310.082550 37.833630,306.642029 
	C44.608440,303.238922 52.515068,301.425323 57.305408,294.017731 
	C53.749569,290.557129 49.948322,286.919739 46.219311,283.209747 
	C42.984627,279.991577 40.769085,276.055298 38.847027,271.981079 
	C36.676781,267.380798 37.522106,266.209351 42.752163,265.969818 
	C46.049679,265.818817 49.391953,266.324249 52.892502,265.392731 
	C53.510563,262.249908 51.908558,259.559753 51.140236,256.784851 
	C50.223396,253.473587 51.376850,252.255280 54.616810,251.873627 
	C61.243362,251.093063 60.977154,250.968323 60.161419,244.021545 
	C58.434467,229.314804 59.523941,231.739914 71.242035,233.696899 
	C72.553703,233.915970 73.866768,234.212021 75.129333,234.624863 
	C80.233055,236.293686 84.194580,235.962021 85.312889,229.515839 
	C85.592987,227.901276 86.428909,226.900742 88.864113,227.296753 
	C93.164886,227.996170 97.560081,221.554276 99.050278,217.542572 
	C102.152481,209.191284 96.604111,205.420181 92.144287,200.713623 
	C91.008781,199.515305 90.067871,198.115662 89.142982,196.737762 
	C86.079613,192.173904 81.985924,188.556305 78.353500,184.571838 
	C74.155464,179.966934 68.505341,176.646683 65.735344,170.239594 
	C63.810234,165.786774 58.559635,162.774490 53.369598,161.455933 
	C51.158051,160.894058 49.432648,159.991135 48.986279,157.969788 
	C47.821545,152.695358 44.144123,149.478165 40.308254,146.248077 
	C35.897076,142.533539 31.880873,138.330917 26.637108,135.682358 
	C24.867271,134.788437 22.618973,126.748962 23.456400,124.838676 
	C23.918114,123.785446 25.144222,122.882187 25.716978,123.531715 
	C27.845657,125.945717 32.007099,125.868530 33.072128,129.323410 
	C35.333977,136.660706 41.913792,139.587357 47.389378,143.618027 
	C48.990089,144.796341 50.849674,143.331406 50.932590,142.117096 
	C51.250870,137.455780 55.538990,136.043610 58.041889,133.429321 
	C59.531017,131.873932 62.961124,133.409393 64.125526,136.113281 
	C66.209267,140.951965 69.179848,144.189072 75.006760,143.478714 
	C77.134941,143.219254 78.755714,144.611603 80.446747,145.683014 
	C82.517677,146.995132 84.671478,147.540924 85.687943,144.587112 
	C86.834015,141.256653 89.823486,139.630173 92.202309,140.793869 
	C94.858879,142.093460 96.897179,144.928238 97.305855,148.693207 
	C98.140190,156.379593 98.083755,164.354294 105.498192,169.870834 
	C110.154404,173.335159 112.702469,178.971680 115.560715,183.970261 
	C119.132698,190.217010 124.872276,192.930481 131.112030,194.718307 
	C135.062134,195.850098 136.784424,192.196854 137.400757,189.177429 
	C141.755432,167.843460 147.971680,146.894394 150.696762,125.222717 
	C150.861557,123.912201 151.315811,122.640190 151.594742,121.341537 
	C152.472534,117.254532 154.739212,116.722351 158.144730,118.639778 
	C163.945801,121.905975 169.812775,125.055077 175.614670,128.319824 
	C186.350647,134.360962 197.605621,139.366760 208.557068,144.965347 
	C215.104446,148.312500 221.507675,147.023666 226.690720,143.985092 
	C232.701157,140.461441 237.951950,135.066315 239.171188,127.313675 
	C239.373138,126.029495 239.320877,124.666214 240.542664,123.714043 
	C248.012939,117.892235 248.411026,109.111755 250.032974,100.852486 
	C250.155670,100.227676 249.808365,99.345123 250.130463,98.949265 
	C257.221161,90.234451 254.720535,79.459465 256.098114,69.635902 
	C257.758484,57.795643 257.849365,45.734810 258.603119,33.768417 
	C258.717957,31.945248 258.884491,30.114052 257.765228,28.452940 
	C256.705444,26.880119 257.182709,25.268454 257.824341,23.680433 
	C259.225739,20.211802 261.336121,17.048983 262.281036,13.195148 
	C263.335815,16.329790 264.530182,19.110416 266.443085,21.757423 
	C267.764191,23.585487 268.023071,26.345425 267.124695,29.306280 
	C265.074890,36.062046 265.976135,43.227612 266.580048,50.129475 
	C267.795044,64.014557 269.722443,77.837303 271.356537,91.685684 
	C271.434418,92.345924 271.304871,93.146324 271.632568,93.643959 
	C276.178314,100.547073 275.034943,109.229523 278.808594,116.385712 
	C280.227875,119.077217 280.203064,122.674530 284.051514,123.685349 
	C284.585022,123.825485 285.175751,125.006248 285.180511,125.709061 
	C285.237457,134.100937 291.647430,138.895157 296.013702,144.789642 
	C298.785248,148.531250 303.652496,147.664642 306.620331,146.535233 
	C309.923584,145.278214 311.043671,140.614792 311.970184,136.887604 
	C312.242157,135.793640 310.955627,135.288132 310.114746,134.791611 
	C308.084839,133.593033 308.078247,131.995239 309.027466,130.096039 
	C309.935822,128.278549 311.254028,127.621559 313.082947,128.631714 
	C315.120300,129.756973 316.467590,129.188416 317.622925,127.279762 
	C318.944550,125.096481 317.592438,123.978539 316.175995,122.672829 
	C313.796143,120.479088 310.804688,118.692772 310.295135,114.628624 
	C314.897583,114.701324 318.642395,117.123535 322.771271,118.029510 
	C326.824890,118.918968 330.124939,118.916885 331.619568,114.328026 
	C332.727142,110.927559 336.259613,112.490936 338.626862,110.858688 
	C337.097076,106.768280 330.560516,105.063034 333.032196,99.050682 
	C336.882355,100.132729 340.627319,101.455307 344.483765,102.202072 
	C349.537811,103.180733 354.640289,104.007187 359.432678,100.757645 
	C361.457397,99.384758 363.390045,100.290199 364.157654,102.631783 
	C367.274628,112.140327 373.353577,119.439423 381.259552,125.693359 
	C380.892334,127.457817 379.246552,128.905655 380.035126,130.963715 
	C377.084991,131.094086 375.315308,129.209534 373.082458,128.694519 
	C370.390564,128.073608 368.152008,127.979950 369.479309,131.891861 
	C369.532257,132.047943 369.723511,132.214188 369.691864,132.333725 
	C366.918793,142.808289 375.415558,145.819321 381.628998,150.317047 
	C382.297028,150.800613 383.167206,151.005005 384.551849,151.600388 
	C380.299255,154.478195 377.501556,152.473724 374.727936,152.260986 
	C372.793182,152.112549 370.851440,151.216339 369.448395,153.610855 
	C368.183838,155.769043 368.862366,157.116959 370.326111,158.881271 
	C372.685883,161.725616 371.210541,165.222031 367.147186,165.429321 
	C363.119659,165.634796 361.901733,168.225128 360.320801,170.886932 
	C359.089020,172.960846 358.795929,174.894531 360.962219,176.639633 
	C363.152771,178.404266 365.038025,180.710754 368.370605,178.730133 
	C380.092499,171.763611 391.590179,164.489899 402.105591,155.742645 
	C403.993347,154.172287 404.007690,149.800674 407.543335,151.061066 
	C409.682892,151.823761 411.272980,154.267700 412.981049,156.077850 
	C423.385590,167.104095 433.788086,178.132690 444.119415,189.227402 
	C449.997803,195.540100 451.477722,204.044006 454.816254,211.597961 
	C459.255096,221.641434 463.129364,231.933731 467.289398,242.101456 
	C468.785736,245.758743 470.208740,248.215057 464.005737,249.550919 
	C458.790192,250.674133 454.114227,254.745834 449.721924,258.310211 
	C443.384338,263.453217 437.084686,268.643127 430.790039,273.838715 
	C429.433563,274.958344 427.329468,275.799530 428.044403,278.093781 
	C428.798828,280.514771 430.922119,280.903595 433.212433,281.220734 
	C443.237366,282.608856 453.328735,282.507751 463.403778,282.888031 
	C470.279999,283.147583 477.212921,282.244080 484.034088,283.840210 
	C486.573792,284.434448 489.058533,283.622589 491.392426,282.879730 
	C498.998047,280.459015 506.243896,284.881226 513.767151,283.865143 
	C514.753479,283.731934 516.247681,284.406647 516.893188,285.203827 
	C520.020386,289.066223 523.954773,288.998749 528.596924,287.970886 
	C529.000000,297.354218 529.000000,306.708466 528.686584,316.395020 
	C524.624268,315.153107 521.293213,315.210449 518.629578,318.869354 
	C517.753418,320.072876 516.374268,321.098633 514.836060,321.076599 
	C509.836548,321.004944 504.879639,322.507965 500.049683,322.384644 
	C482.320160,321.931976 464.653564,323.548584 446.940613,323.459534 
	C442.514404,323.437256 437.728485,323.465179 432.510620,325.520813 
	C434.573364,327.446838 436.124756,328.864990 437.643005,330.317780 
	C452.045746,344.099579 469.845184,353.181000 485.693329,364.967896 
	C489.771362,368.000916 492.997589,371.563782 495.976624,375.592651 
	C488.416199,373.875427 482.151611,369.407867 474.383453,368.761108 
	C470.762024,368.459656 467.455750,365.722351 464.083954,363.885345 
	C456.171661,359.574615 449.234650,353.774353 441.388214,349.416290 
	C439.535583,348.387238 436.888672,345.508148 435.041290,348.980133 
	C433.607483,351.674774 431.909302,354.902161 436.027466,357.677673 
	C439.322632,359.898529 440.592133,363.210968 440.821655,367.708862 
	C441.117889,373.515137 440.780121,378.908752 438.681641,384.246033 
	C437.936371,386.141541 439.447845,387.309540 439.973145,388.820740 
	C442.413269,395.840912 445.493958,402.808258 443.767426,410.521027 
	C443.189423,413.103210 442.407227,415.610107 443.014679,418.312042 
	C441.437836,419.002258 440.002899,419.455536 438.746735,420.207458 
	C427.264313,427.080719 418.810791,429.773865 406.359619,430.453613 
	C405.870544,430.480347 405.270416,430.523346 404.923950,430.806122 
	C399.049530,435.600494 390.733887,435.432953 384.586121,440.960419 
	C394.023926,448.824127 406.211914,452.711914 415.112183,462.163147 
	C412.583282,462.796539 411.394104,461.725281 410.089813,461.121368 
	C401.020325,456.921539 392.766022,451.271423 384.039612,446.460571 
	C381.879364,445.269592 379.664581,444.227997 377.997284,447.046539 
	C376.320618,449.881042 378.800262,450.856506 380.537048,452.020355 
	C389.738312,458.186523 400.009399,462.643250 408.659882,469.702881 
	C412.502014,472.838409 417.145508,475.000305 420.299133,479.046997 
	C412.094116,477.699341 405.219482,473.230621 398.267120,469.550964 
	C390.987732,465.698151 383.929291,461.157959 376.833557,456.823456 
	C371.191772,453.377136 365.332489,456.641998 365.041748,463.111969 
	C364.997253,464.102234 364.730530,465.082367 364.568787,466.067566 
	C363.163788,474.623352 363.443878,482.912445 368.709534,490.305206 
	C371.218842,493.828156 373.866608,497.254242 376.507782,500.680939 
	C378.895844,503.779205 380.830627,506.978210 380.357025,511.156616 
	C380.218201,512.381226 379.989044,514.277649 381.831238,514.343201 
	C384.873383,514.451477 385.349457,516.916687 386.700775,518.720032 
	C390.913025,524.341125 392.677704,531.259827 396.568848,537.038452 
	C390.822540,546.043335 384.758484,546.758606 371.756104,540.008240 
	C365.592224,544.753174 358.004456,543.912170 350.977203,546.024841 
	C349.324371,540.575012 346.863953,536.063049 344.159302,531.680542 
	C342.895416,529.632568 341.503387,527.807068 338.557465,528.746887 
	C332.236237,530.763733 328.369324,526.976990 325.322052,522.457581 
	C321.415161,516.663391 318.178650,510.420471 314.359619,504.562378 
	C312.442993,501.622345 313.008087,499.708740 315.674713,497.933990 
	C317.539703,496.692780 319.562286,495.334778 317.755463,492.794250 
	C316.251160,490.679169 316.610992,486.531403 312.775635,486.892639 
	C309.752625,487.177338 306.109009,487.610138 304.826294,491.114655 
	C303.648254,494.333160 302.903534,497.757019 302.363647,501.153320 
	C300.878204,510.497253 299.583588,519.871826 298.246857,529.239014 
	C297.473206,534.660217 296.847015,540.103943 295.975494,545.508728 
	C295.712921,547.136963 294.860016,548.999817 292.811432,548.743774 
	C290.545166,548.460388 290.165680,546.553833 290.347107,544.544556 
	C290.540344,542.404907 290.666473,540.258728 290.886017,538.121948 
	C292.124420,526.068298 293.415405,514.019836 294.601410,501.961029 
	C294.806396,499.876617 295.268738,497.304382 291.892975,497.198517 
	C288.941742,497.105927 288.531158,499.230865 288.207458,501.536072 
	C286.913971,510.747742 285.534851,519.947327 284.201721,529.153503 
	C283.913116,531.146423 283.681580,533.146240 281.172119,533.583801 
	C278.846161,532.227173 279.412323,530.168457 279.625641,528.207214 
	C280.633240,518.943542 281.643005,509.680023 282.645203,500.415710 
	C282.946442,497.630951 282.509949,495.388580 279.019989,495.148193 
	C275.770172,494.924408 274.595856,496.654236 274.314789,499.601776 
	C273.667755,506.387543 273.091919,513.188782 272.124573,519.931702 
	C271.639984,523.309387 271.717346,527.026733 269.216400,529.992859 
	C267.274261,528.120056 268.451599,524.893921 265.662323,523.939270 
	C260.886475,526.348083 261.468658,535.282471 253.493637,533.316895 
	C253.293396,540.590210 250.303970,545.719543 244.512115,549.495239 
	C240.355164,552.205139 236.113144,555.159180 236.000000,561.000000 
	C236.000000,561.000000 235.500000,561.000000 235.250000,561.000000 
M153.730820,407.759308 
	C189.535141,447.148956 234.049088,462.338104 285.924622,452.191864 
	C350.002258,439.659058 393.864380,382.737610 394.191559,321.714691 
	C394.354675,291.291351 386.266449,263.546967 367.739227,239.625427 
	C336.050323,198.710129 293.852570,180.256836 242.224030,185.355362 
	C206.346970,188.898361 176.607193,205.158768 153.162903,232.547501 
	C128.358139,261.525635 118.314064,295.525787 121.574142,333.121887 
	C123.992790,361.014374 135.048126,385.790436 153.730820,407.759308 
M348.391144,499.578735 
	C350.053192,498.797516 350.821228,497.528717 350.906219,495.653320 
	C351.193054,489.323547 350.604401,483.031799 349.734406,476.802643 
	C349.078033,472.102783 346.604156,471.192993 342.286285,473.054260 
	C338.194641,474.818024 335.751709,477.131653 336.915924,482.147919 
	C337.578796,485.004028 337.153137,488.099792 337.359894,491.077728 
	C337.678192,495.662292 343.423676,500.491058 348.391144,499.578735 
M425.709106,252.151825 
	C431.251831,248.232819 436.848541,244.387100 442.311523,240.359909 
	C444.603088,238.670609 446.930786,236.616394 444.570618,233.380585 
	C442.043274,229.915558 439.287781,230.946365 436.479767,233.162628 
	C431.151978,237.367645 425.751617,241.480637 420.416443,245.676407 
	C415.869873,249.251968 415.845123,250.213974 419.967194,255.244431 
	C422.111603,255.193466 423.462341,253.568588 425.709106,252.151825 
M390.149780,189.691483 
	C388.570190,190.911926 386.966034,192.102112 385.417755,193.361053 
	C383.757263,194.711227 382.444702,196.166977 384.282043,198.363922 
	C385.833160,200.218582 387.326599,202.103561 390.076599,200.283676 
	C396.460052,196.059235 402.890198,191.903000 409.206360,187.580276 
	C411.731537,185.852112 412.401215,183.634552 410.522491,180.724243 
	C408.403229,177.441269 406.103210,178.462799 403.772095,180.044144 
	C399.365814,183.033218 395.056732,186.165512 390.149780,189.691483 
M419.980225,198.500488 
	C421.552216,195.570740 419.498871,193.807144 417.750397,192.105835 
	C416.511688,190.900497 414.871368,191.264801 413.607025,192.179489 
	C407.299896,196.742294 401.026642,201.353027 394.794983,206.018387 
	C392.642456,207.629913 393.441895,209.374222 394.779205,211.163712 
	C396.205963,213.072922 397.678009,214.495850 400.117462,212.808075 
	C406.649139,208.288971 413.654999,204.442093 419.980225,198.500488 
M431.532532,218.358795 
	C425.198608,221.491608 420.313995,226.604156 414.713928,230.737518 
	C409.193878,234.811844 409.247223,235.399445 413.908112,241.289169 
	C421.031403,236.516953 428.242615,231.783020 435.326874,226.866165 
	C436.942444,225.744904 438.346619,224.028748 437.202576,221.723221 
	C436.191437,219.685577 435.450745,217.130768 431.532532,218.358795 
M406.385101,216.910660 
	C405.369507,217.765778 404.278381,218.546982 403.353912,219.491287 
	C401.394257,221.493042 403.051147,223.131454 404.023651,224.809830 
	C405.094482,226.657837 406.542053,226.763962 408.215485,225.666580 
	C414.468719,221.565872 420.791840,217.565582 426.932098,213.301971 
	C429.249878,211.692581 430.462860,209.553055 428.320740,206.536545 
	C426.081146,203.382797 423.690857,204.382416 421.457123,205.913162 
	C416.524445,209.293488 411.775574,212.942001 406.385101,216.910660 
M433.877411,262.347900 
	C439.414764,258.661163 444.981995,255.018112 450.472961,251.263519 
	C452.342377,249.985229 454.880829,248.627579 452.779999,245.778641 
	C450.925110,243.263245 448.258728,243.563049 446.134216,245.216125 
	C438.655273,251.035568 431.329956,257.052673 423.958069,263.009308 
	C422.826935,263.923309 422.200470,265.005280 423.124146,266.460999 
	C424.267517,268.262970 425.663666,267.639557 426.990295,266.820587 
	C429.112854,265.510254 431.177551,264.106262 433.877411,262.347900 
M373.651886,186.247208 
	C374.926971,189.185959 376.711090,189.766037 379.515137,187.921875 
	C386.176544,183.540787 392.951691,179.332687 399.677429,175.049271 
	C400.947174,174.240601 402.073334,173.323868 402.795319,171.917892 
	C403.597198,170.356384 403.378693,169.111664 402.179626,167.871155 
	C401.036407,166.688400 399.717316,166.675522 398.569244,167.499725 
	C390.236542,173.481689 381.090851,178.351807 373.651886,186.247208 
M247.269257,496.205109 
	C243.459488,495.330719 239.408447,493.630920 236.098633,496.911133 
	C234.091644,498.900208 234.603027,508.100250 236.277817,510.157867 
	C239.622513,514.267090 245.686905,513.699951 247.539093,508.748810 
	C248.965912,504.934814 250.054337,500.775665 247.269257,496.205109 
M75.775513,294.838165 
	C75.607414,291.402924 80.243744,289.723816 79.026558,285.454071 
	C73.564430,284.737213 69.211418,287.487579 64.835320,290.048187 
	C63.926388,290.580017 63.549671,291.681000 64.097885,292.688354 
	C67.174576,298.341858 71.092171,303.222260 77.027115,307.472656 
	C77.762650,302.601685 75.589470,299.268707 75.775513,294.838165 
M63.830029,278.633484 
	C62.358017,276.837738 60.918026,275.014526 59.407787,273.251526 
	C55.417217,268.593140 50.226730,267.672943 44.164520,270.505890 
	C49.252789,278.722198 63.039135,286.876160 67.336761,284.143433 
	C67.053375,282.049866 65.486343,280.716583 63.830029,278.633484 
M267.239563,113.219238 
	C266.843781,110.403839 266.095795,108.249161 262.440765,108.200554 
	C258.970276,108.154388 257.779419,109.907585 257.222595,112.820740 
	C256.703156,115.538338 255.458679,118.149323 256.011932,121.180550 
	C259.359436,122.614403 262.834564,121.917686 266.238983,121.850075 
	C268.092285,121.813271 268.892944,120.594147 268.592072,118.825684 
	C268.315765,117.201683 267.837189,115.612099 267.239563,113.219238 
M51.197430,314.316193 
	C56.555462,318.464111 62.119389,322.236328 68.941017,324.381714 
	C68.711479,323.675171 68.695946,323.318176 68.512375,323.107849 
	C64.643623,318.675232 56.107792,317.789032 57.855183,309.064240 
	C57.897404,308.853394 57.464348,308.556305 57.269169,308.287689 
	C54.165672,304.016754 50.701450,304.044983 45.572418,308.527313 
	C46.755596,310.768036 48.890079,312.144958 51.197430,314.316193 
M261.482727,141.999115 
	C266.714142,141.999115 271.945587,141.999115 277.640656,141.999115 
	C270.716919,134.749161 254.204208,134.298813 248.882355,140.931747 
	C252.664185,143.022034 256.691193,141.553711 261.482727,141.999115 
M67.187996,235.491577 
	C65.618156,235.665146 64.396858,236.461365 65.154816,238.082565 
	C68.030510,244.233261 72.361671,249.170197 78.025459,253.082504 
	C78.114456,247.800613 75.784393,242.925323 78.034454,237.707245 
	C74.351013,236.911057 71.120590,236.212799 67.187996,235.491577 
M121.058716,466.114838 
	C117.458229,466.386810 115.969749,469.441681 113.918121,471.674011 
	C112.743279,472.952362 112.295212,474.602783 113.722969,476.154510 
	C115.147232,477.702484 116.829483,478.071320 118.638809,476.963623 
	C121.472733,475.228638 123.771149,472.962646 125.545784,469.877655 
	C124.068092,468.569366 122.839622,467.481720 121.058716,466.114838 
M129.795944,449.302307 
	C131.275223,447.517426 134.640945,446.538940 133.621078,443.694183 
	C132.905029,441.696930 131.372162,438.545654 128.343567,439.713989 
	C125.335999,440.874268 122.010986,443.035797 122.724289,446.849701 
	C123.292557,449.888184 125.923874,451.316406 129.795944,449.302307 
M58.781189,259.758728 
	C68.215370,268.502930 68.246391,268.524323 72.417656,269.157990 
	C61.536076,254.450623 63.102127,253.499603 56.877510,256.246216 
	C56.680862,257.569702 57.596085,258.367493 58.781189,259.758728 
M98.743690,453.662476 
	C103.155357,456.089691 104.940147,452.316254 107.068909,449.897736 
	C108.053612,448.779053 106.733444,447.441040 105.897766,446.460449 
	C105.057564,445.474518 104.165947,444.423492 102.603134,444.749847 
	C99.737045,445.348389 97.364159,449.949097 98.743690,453.662476 
M124.444023,479.050293 
	C123.462959,480.287476 122.708893,481.641998 124.086517,482.984100 
	C125.446136,484.308685 127.291008,484.203003 128.678574,483.297394 
	C130.958740,481.809113 133.500610,480.448578 134.583359,477.703461 
	C130.802460,472.948364 130.802460,472.948364 124.444023,479.050293 
M63.633781,309.775635 
	C64.820572,310.429749 65.762024,312.043793 67.677597,310.658020 
	C66.792336,306.953735 64.923386,303.702972 62.752621,300.624512 
	C61.632557,299.036072 60.010529,298.781464 58.414989,299.911621 
	C56.818390,301.042542 57.389511,302.485352 58.139145,303.867432 
	C59.347584,306.095367 61.234875,307.705872 63.633781,309.775635 
M144.917496,466.324463 
	C147.677048,464.809387 149.973618,462.831482 151.582642,460.059814 
	C150.191544,458.331390 148.917114,456.089447 146.788834,457.342529 
	C144.335510,458.787018 141.699890,460.630035 141.410675,463.965942 
	C141.249939,465.820007 142.468323,466.584167 144.917496,466.324463 
M140.500595,455.142761 
	C141.820923,453.642365 143.517685,452.083557 140.977280,450.312469 
	C137.851349,448.133057 136.666687,451.393616 134.996185,452.801025 
	C133.602585,453.975098 131.616135,455.387268 133.496109,457.683777 
	C134.472519,458.876465 135.818344,458.948059 137.038025,458.160431 
	C138.124481,457.458893 139.042587,456.496674 140.500595,455.142761 
M107.867790,426.627594 
	C111.440987,430.401520 113.270180,426.712524 115.388931,424.777863 
	C116.999336,423.307343 116.433975,421.689148 114.832893,420.679962 
	C111.587456,418.634491 110.222427,421.671082 108.442909,423.350677 
	C107.732109,424.021576 107.355362,424.983795 107.867790,426.627594 
M115.419418,434.894226 
	C116.105621,436.538208 117.103310,438.138062 119.067223,437.005554 
	C121.207275,435.771454 121.868607,433.390015 122.113983,431.042664 
	C122.250938,429.732452 121.333015,428.734253 120.140594,428.528717 
	C117.992180,428.158386 116.826050,429.777588 115.903328,431.334076 
	C115.435707,432.122894 115.499161,433.226562 115.419418,434.894226 
M448.308655,310.975586 
	C446.508881,311.099701 443.802582,311.055573 444.585785,313.558868 
	C445.988647,318.042664 450.046326,315.201965 453.087555,316.224030 
	C452.849640,314.329926 452.673584,312.928284 452.474884,311.346283 
	C451.320343,311.223267 450.188385,311.102631 448.308655,310.975586 
M149.006577,468.930145 
	C148.660522,471.726227 150.352112,471.604523 151.906570,470.633392 
	C154.365540,469.097168 156.615677,467.218475 158.304489,464.006531 
	C153.324371,462.250366 151.976151,466.661133 149.006577,468.930145 
M261.713287,511.992340 
	C261.901276,509.694275 265.004211,506.166229 259.652130,506.093567 
	C256.832123,506.055267 256.404541,508.885132 256.708221,510.857361 
	C257.100433,513.404724 258.880310,514.435181 261.713287,511.992340 
M114.688774,490.560303 
	C110.810715,490.339874 109.524918,493.241638 107.721161,495.998444 
	C111.242805,497.867462 113.346603,496.052704 115.362526,493.993164 
	C116.425529,492.907196 117.807327,491.761810 114.688774,490.560303 
M133.192657,487.368896 
	C135.990082,487.026947 137.861755,485.191620 139.676422,483.297974 
	C140.424408,482.517365 140.671204,481.552551 139.827911,480.695007 
	C139.129440,479.984741 138.027649,479.251099 137.242859,480.044922 
	C135.231445,482.079315 132.068039,483.474182 133.192657,487.368896 
M465.770050,314.316071 
	C464.216919,313.251556 467.058563,311.887787 465.373718,310.709198 
	C463.454041,310.240204 461.375336,310.048004 458.168304,311.069305 
	C462.222107,312.288055 460.104736,313.805023 458.177185,316.562439 
	C461.533630,314.879486 463.986420,317.417816 465.770050,314.316071 
M225.722900,503.303864 
	C224.444916,500.846252 222.661591,501.806549 221.256439,502.919708 
	C219.973312,503.936249 220.150635,505.625732 220.607651,507.091156 
	C220.930588,508.126678 221.781555,508.796631 222.895493,508.549835 
	C225.328232,508.010895 225.786301,506.114777 225.722900,503.303864 
M106.036995,409.954315 
	C104.164803,411.927246 100.995468,413.138947 101.762260,417.099457 
	C104.958374,416.583832 106.576302,414.515381 107.971596,412.310638 
	C108.850945,410.921173 108.575523,409.748108 106.036995,409.954315 
M85.252739,422.498444 
	C84.521751,423.539612 83.357651,424.466522 84.440239,426.229919 
	C87.944977,425.040009 90.438477,423.038696 91.836082,418.938416 
	C88.189316,419.782349 88.189316,419.782349 85.252739,422.498444 
M102.317932,408.953796 
	C103.084534,407.978760 104.370613,407.210052 103.674026,405.627563 
	C98.877281,406.939026 97.479263,408.440002 97.501801,412.298828 
	C99.552383,412.220734 100.507591,410.510620 102.317932,408.953796 
M123.928192,495.121796 
	C119.657326,492.931824 119.255882,496.689301 117.133415,499.403931 
	C121.056801,499.852142 123.170746,498.785278 123.928192,495.121796 
M111.437492,459.249420 
	C112.836021,457.678925 112.225327,456.402863 110.574326,455.808655 
	C108.830162,455.180878 107.992271,456.790222 107.082092,457.901398 
	C106.414192,458.716827 106.075325,459.794342 106.857895,460.592926 
	C108.602974,462.373596 109.745422,460.626892 111.437492,459.249420 
M212.608017,501.412354 
	C212.371674,503.571869 211.584015,505.795532 213.159363,507.932251 
	C216.774841,503.791138 216.678650,501.717834 212.608017,501.412354 
M155.523682,473.390839 
	C155.178177,474.223450 154.495575,475.766754 156.160553,475.149780 
	C158.950836,474.115753 161.597046,472.470520 162.689957,468.521088 
	C159.487732,469.338165 157.705399,471.141815 155.523682,473.390839 
M269.903717,507.121948 
	C266.698181,508.434479 266.463348,509.640045 268.765320,513.337463 
	C271.071106,511.898987 270.747528,509.771240 269.903717,507.121948 
M89.566414,427.096283 
	C88.891174,428.129028 87.652588,429.101349 89.426094,430.594879 
	C91.751091,429.535950 93.799507,428.321411 93.529732,425.039337 
	C91.726120,424.627838 90.985107,425.864899 89.566414,427.096283 
M141.770065,488.710449 
	C143.568665,487.751312 145.503571,486.885986 145.024750,483.709137 
	C142.499969,484.840729 139.578247,484.984192 141.770065,488.710449 
M449.256531,302.169800 
	C447.730072,302.379822 446.023132,301.570435 444.314301,303.204437 
	C447.303040,304.144043 449.853546,304.156891 452.372925,302.444763 
	C451.570526,302.359497 450.768127,302.274231 449.256531,302.169800 
M450.516602,297.358124 
	C448.544098,297.489105 446.450745,296.839081 443.682037,298.424927 
	C446.941864,299.220795 449.376678,299.265991 451.600067,298.621155 
	C453.122437,298.179596 451.863586,297.639252 450.516602,297.358124 
M150.271149,491.339355 
	C152.054214,490.072784 151.551971,488.709229 150.039749,487.918304 
	C147.884552,486.791077 146.964005,488.507538 145.881439,490.159454 
	C147.338181,490.649078 148.535370,491.051483 150.271149,491.339355 
z"/>
<path fill="#000000" opacity="1.000000" stroke="none" 
	d="
M227.098602,204.929703 
	C229.690002,204.651154 230.965698,202.610580 232.410446,200.793976 
	C234.934082,204.250229 240.105530,203.998016 241.662231,200.290314 
	C243.043411,197.000656 245.981659,197.183640 248.381943,197.372559 
	C262.239899,198.463226 276.315338,197.191818 289.929657,200.987961 
	C304.826691,205.141769 318.642120,211.591888 331.154694,220.714493 
	C352.826813,236.515091 367.902374,257.122711 375.978973,282.742737 
	C376.473236,284.310577 377.840271,286.026367 376.362427,287.930115 
	C373.383728,287.332886 374.160858,283.521698 371.207855,282.368164 
	C367.971832,293.706421 372.529144,305.114319 371.472290,316.115234 
	C369.277618,316.562805 368.767365,315.673920 368.372681,314.741028 
	C366.428284,310.145203 364.403870,305.578888 362.616180,300.922089 
	C359.218170,292.070557 350.220276,288.830048 341.902435,293.580200 
	C345.439514,303.399139 342.753235,312.182587 334.063721,319.443298 
	C331.553528,321.540771 329.153534,323.770081 326.398041,326.208832 
	C330.765350,329.034515 333.152527,324.192444 337.076843,324.793701 
	C337.668396,333.003174 335.348724,340.495148 329.997772,346.613861 
	C325.772888,351.444946 322.696869,356.912872 319.177063,362.147614 
	C316.524933,366.091888 317.860199,370.337311 318.707642,374.214966 
	C320.143341,380.784424 318.683594,385.562744 312.761017,389.056976 
	C309.170135,391.175568 306.737091,393.882507 305.763397,398.630066 
	C304.883270,402.921265 299.628265,405.072449 296.870453,408.783142 
	C291.630096,415.834167 283.122101,416.095459 275.509674,418.071228 
	C274.350922,418.372009 272.734131,417.874268 272.523682,416.765930 
	C271.496704,411.356873 265.242950,408.399750 265.941711,402.062073 
	C266.116455,400.477448 264.247986,398.550110 263.075500,396.959412 
	C260.786133,393.853424 259.985443,390.712250 262.238251,387.276794 
	C267.160431,379.770569 264.246887,373.211517 259.402771,367.245331 
	C256.721436,363.942902 254.994659,361.168518 256.400452,356.541443 
	C258.002930,351.267029 256.350983,349.702454 250.832672,349.878510 
	C249.104584,349.933655 247.852493,349.412231 247.067413,348.011902 
	C245.029144,344.376404 241.887650,344.578522 238.849121,345.954651 
	C232.267517,348.935425 225.348404,347.564270 218.734268,347.183197 
	C212.893372,346.846649 209.767838,341.341461 206.948318,336.591370 
	C205.348236,333.895630 204.548416,330.751190 202.451263,328.298157 
	C200.903244,326.487427 201.672058,324.566620 202.236786,322.626251 
	C203.526688,318.194275 204.050095,313.729279 204.433350,309.072845 
	C204.931885,303.015656 209.611969,298.101166 215.312668,295.177734 
	C217.950577,293.824982 220.033051,292.586334 220.992996,289.468597 
	C222.356857,285.038940 227.360931,283.821503 229.937729,279.946960 
	C231.948639,282.063507 234.170303,281.968201 236.525131,281.350250 
	C242.527161,279.775238 248.762283,280.112366 254.850952,279.197968 
	C257.879028,278.743256 260.165863,280.408081 259.832733,283.280945 
	C259.444489,286.629181 261.359741,287.217743 263.531860,288.157349 
	C265.352020,288.944733 267.173767,289.772491 268.872467,290.787231 
	C272.117188,292.725464 275.103241,294.512024 277.114014,289.261139 
	C277.818451,287.421600 279.777527,287.276794 281.420898,288.133209 
	C285.654236,290.339417 290.202271,289.800720 294.658569,289.736481 
	C301.915161,289.631897 303.614136,286.373444 299.896515,279.497559 
	C297.134827,280.654083 294.215820,279.516205 291.261688,279.825684 
	C288.445770,280.120636 286.821869,277.980133 285.371674,275.859497 
	C284.404816,274.445648 284.100616,271.915771 281.649628,272.585724 
	C279.495514,273.174530 280.008179,275.578247 279.464172,277.230591 
	C279.322296,277.661560 279.340912,278.145325 279.282013,278.636627 
	C274.834290,276.271118 274.237732,270.431824 269.567383,268.440857 
	C268.112396,267.820587 266.936157,266.362671 265.006958,266.894867 
	C264.609344,270.379913 270.275940,270.079926 269.266602,274.164093 
	C265.379486,274.547516 263.647278,271.180603 261.152252,269.397064 
	C258.104919,267.218658 250.248871,265.750061 248.255676,268.308899 
	C245.932709,271.291107 242.004379,272.055145 240.179092,275.495758 
	C239.007538,277.704102 232.041428,278.127930 229.738647,276.299561 
	C226.631058,273.832184 226.795975,270.472809 228.016037,267.198059 
	C228.765533,265.186401 230.672714,265.313354 232.248947,266.183868 
	C234.673767,267.522980 237.060608,268.806458 239.390198,266.286926 
	C241.779938,263.702393 240.758331,261.065826 238.985321,258.792023 
	C240.174332,256.124146 242.973969,256.116150 244.803085,254.268982 
	C244.982895,254.010620 244.953644,254.028061 244.953644,254.028061 
	C247.994507,252.335648 251.201569,250.878433 254.027237,248.881500 
	C256.604736,247.059967 257.362549,244.384537 254.823761,241.850922 
	C251.661652,238.695251 251.923889,236.008850 255.699570,233.822906 
	C258.402344,232.258102 260.175110,229.957550 261.902802,227.476486 
	C265.536743,222.257980 268.721008,221.183899 274.648376,223.195511 
	C277.458008,224.149033 280.629456,223.702179 283.188599,225.693222 
	C284.570892,226.768677 285.609161,225.470230 286.581818,224.558487 
	C288.635986,222.632843 290.705688,220.723801 293.034943,218.561066 
	C290.906006,215.727112 291.255341,212.362411 288.669159,209.482864 
	C284.663818,205.023209 281.134796,204.676025 273.602875,207.393402 
	C267.926971,209.441177 262.276642,209.725616 256.491364,208.217117 
	C254.746216,207.762070 253.023697,207.220169 251.198822,206.691391 
	C249.634262,212.619965 244.096970,214.322372 240.310913,217.744995 
	C235.923416,221.711349 230.515594,223.433151 224.617264,223.675171 
	C220.010574,223.864182 216.037811,225.900833 212.088547,228.037384 
	C211.280273,228.474655 210.227051,228.459076 209.272354,228.655182 
	C208.706329,224.383270 212.165985,220.045700 217.706635,217.999603 
	C223.769913,215.760513 228.102036,211.203247 232.996017,207.539780 
	C231.413239,204.355347 228.631454,207.561905 227.057678,205.342896 
	C226.999298,205.038208 227.098602,204.929703 227.098602,204.929703 
M306.993927,303.810394 
	C311.228302,309.323273 311.720886,317.711212 319.513641,320.654785 
	C321.392609,318.690613 320.921265,316.836365 319.473846,315.632111 
	C315.845459,312.613190 313.303772,308.881866 310.944031,304.859833 
	C309.821869,302.947144 307.676178,301.634979 305.994171,300.050781 
	C305.756042,300.285034 305.517883,300.519287 305.279724,300.753571 
	C305.733459,301.587006 306.187195,302.420471 306.993927,303.810394 
M287.026215,264.434784 
	C286.721100,269.390869 288.183502,270.660126 292.511139,268.729675 
	C294.973297,267.631348 297.317413,267.927124 301.180298,268.412323 
	C298.331421,266.661377 299.794861,265.137146 300.062286,263.876404 
	C296.626770,262.192657 292.980865,264.138092 289.903595,261.789886 
	C288.626617,260.815460 287.595917,262.362885 287.026215,264.434784 
M266.367157,243.361938 
	C266.330536,244.831024 266.748230,246.060944 268.422791,246.179581 
	C269.837646,246.279816 270.141754,245.025894 270.768097,244.041992 
	C273.358093,239.973480 271.068756,237.561325 267.329041,234.564667 
	C268.491760,238.002640 267.333618,240.302963 266.367157,243.361938 
M332.902954,296.359375 
	C336.172333,296.298431 336.739960,294.693512 334.187744,292.996887 
	C332.489624,291.868073 330.358063,290.521545 327.821289,290.768829 
	C328.081207,293.931793 331.306213,293.953644 332.902954,296.359375 
z"/>
<path fill="#000000" opacity="1.000000" stroke="none" 
	d="
M155.425568,387.504944 
	C137.539047,360.130280 130.460876,330.946594 137.592911,298.855560 
	C138.023712,303.621765 142.725281,306.441620 142.667953,311.607513 
	C142.627396,315.261078 144.096558,319.067902 146.582550,322.203369 
	C148.801682,325.002228 150.715530,328.483307 150.108856,331.823822 
	C148.711380,339.518829 154.677933,342.582458 158.658295,346.772705 
	C160.799301,349.026642 163.335266,350.954224 165.477982,353.302521 
	C170.024582,358.285339 171.567886,363.581940 167.677872,369.586212 
	C165.749435,372.562775 167.615417,375.370789 167.702942,378.257324 
	C167.803284,381.566711 170.130951,385.587738 164.271194,386.847198 
	C162.437744,387.241302 163.314697,389.707642 163.881805,391.257355 
	C164.711456,393.524567 165.949219,395.703369 165.163239,398.984558 
	C160.964127,395.660706 158.422256,391.619232 155.425568,387.504944 
z"/>
<path fill="#000000" opacity="1.000000" stroke="none" 
	d="
M341.102936,411.123077 
	C338.666840,412.559601 337.356201,414.955475 334.912384,415.674896 
	C332.987427,415.235962 334.544373,413.576843 333.677429,412.706177 
	C329.997437,412.263611 327.274536,415.709778 323.660889,415.853577 
	C322.499420,413.218353 324.346008,412.094391 325.499695,410.909363 
	C333.257660,402.941010 340.143280,394.088440 349.405823,387.638397 
	C353.242462,384.966675 356.184357,381.321045 359.046844,377.627716 
	C360.104401,376.263275 361.281708,374.748199 363.576447,376.445984 
	C365.631134,377.966187 365.159760,379.380157 364.364960,381.171783 
	C359.133148,392.965393 351.117859,402.599854 341.102936,411.123077 
z"/>
<path fill="#000000" opacity="1.000000" stroke="none" 
	d="
M181.741959,235.769638 
	C179.609070,238.270645 177.175049,240.382645 176.945099,244.167816 
	C165.802460,241.025497 161.467010,251.299576 153.869507,255.887268 
	C153.974396,246.668915 185.463074,216.327255 196.572311,213.882858 
	C197.022247,214.328033 197.472183,214.773209 197.922119,215.218384 
	C194.616501,217.724838 191.310883,220.231277 187.112061,223.414978 
	C193.141098,223.460556 195.154266,217.682312 200.488846,218.496719 
	C197.359055,224.723251 194.287445,230.584930 190.138977,235.714493 
	C187.847885,238.547394 184.742142,237.439606 181.741959,235.769638 
z"/>
<path fill="#000000" opacity="1.000000" stroke="none" 
	d="
M226.954529,205.096558 
	C220.641617,211.525833 213.468048,216.465454 204.529236,219.594406 
	C204.468613,215.281677 207.242111,215.071594 209.936310,214.355850 
	C212.478394,213.680496 214.663742,212.127991 216.493805,209.521530 
	C211.592331,210.910172 207.186295,213.214630 201.560989,211.432709 
	C206.766830,207.007202 212.725952,205.485703 218.288376,203.248245 
	C220.726929,202.267334 223.337036,201.526764 225.936371,201.179474 
	C229.077209,200.759827 228.808472,202.431915 227.244202,204.652130 
	C227.098602,204.929703 226.999298,205.038208 226.954529,205.096558 
z"/>
<path fill="#000000" opacity="1.000000" stroke="none" 
	d="
M331.963806,377.012939 
	C335.205505,376.594330 334.370880,378.807129 333.999329,380.075958 
	C332.106659,386.538910 328.599274,392.207306 324.620178,397.553101 
	C323.602905,398.919739 321.723083,400.434784 319.912964,398.897766 
	C318.308777,397.535614 319.234375,395.615112 319.823425,393.815094 
	C322.047180,387.019806 326.869720,382.137329 331.963806,377.012939 
z"/>
<path fill="#000000" opacity="1.000000" stroke="none" 
	d="
M244.996552,254.001831 
	C241.692307,253.085938 237.096466,253.188293 240.237000,247.424591 
	C240.579773,246.795547 239.412354,245.387878 239.032471,244.310654 
	C238.437012,242.622162 239.028336,241.284225 240.692551,240.787766 
	C242.654541,240.202438 243.517227,241.440186 243.331345,243.200211 
	C243.079620,245.583420 244.480515,247.302841 245.540009,249.074112 
	C246.554108,250.769485 246.586151,252.080170 245.124695,253.758102 
	C244.953644,254.028061 244.982895,254.010620 244.996552,254.001831 
z"/>
<path fill="#000000" opacity="1.000000" stroke="none" 
	d="
M195.180908,424.204712 
	C194.137833,423.433380 193.059113,423.111786 193.027252,421.046600 
	C201.110519,423.630463 208.489990,427.051880 215.651138,431.078827 
	C208.321518,430.612854 201.948837,427.346283 195.180908,424.204712 
z"/>
<path fill="#000000" opacity="1.000000" stroke="none" 
	d="
M232.616241,248.924286 
	C233.431992,246.451416 234.697632,245.066299 237.280945,245.544647 
	C236.653793,250.210510 235.977661,250.713715 232.616241,248.924286 
z"/>
</svg>